<mxfile host="app.diagrams.net" modified="2021-07-11T12:44:41.145Z" agent="5.0 (Windows NT 10.0; Win64; x64) AppleWebKit/537.36 (KHTML, like Gecko) Chrome/91.0.4472.124 Safari/537.36" etag="E5JQpdHi3w5ts-Ryi-Yp" version="14.8.5" type="github">
  <diagram id="tc25s-KdlUhLTBiccRcp" name="Page-1">
    <mxGraphModel dx="6103" dy="762" grid="1" gridSize="10" guides="1" tooltips="1" connect="1" arrows="1" fold="1" page="1" pageScale="1" pageWidth="4681" pageHeight="3300" math="0" shadow="0">
      <root>
        <mxCell id="0" />
        <mxCell id="1" parent="0" />
        <mxCell id="gb-sB6ZDZNAu9KjxvyiK-37" value="" style="edgeStyle=orthogonalEdgeStyle;rounded=0;orthogonalLoop=1;jettySize=auto;html=1;strokeColor=#000000;" edge="1" parent="1" source="gb-sB6ZDZNAu9KjxvyiK-8" target="gb-sB6ZDZNAu9KjxvyiK-36">
          <mxGeometry relative="1" as="geometry" />
        </mxCell>
        <mxCell id="gb-sB6ZDZNAu9KjxvyiK-39" value="" style="edgeStyle=orthogonalEdgeStyle;rounded=0;orthogonalLoop=1;jettySize=auto;html=1;strokeColor=#000000;" edge="1" parent="1" source="gb-sB6ZDZNAu9KjxvyiK-8" target="gb-sB6ZDZNAu9KjxvyiK-38">
          <mxGeometry relative="1" as="geometry">
            <Array as="points">
              <mxPoint x="320" y="250" />
              <mxPoint x="500" y="250" />
            </Array>
          </mxGeometry>
        </mxCell>
        <mxCell id="gb-sB6ZDZNAu9KjxvyiK-8" value="Person" style="whiteSpace=wrap;html=1;align=center;fillColor=#60a917;strokeColor=#2D7600;fontColor=#ffffff;" vertex="1" parent="1">
          <mxGeometry x="270" y="140" width="100" height="40" as="geometry" />
        </mxCell>
        <mxCell id="gb-sB6ZDZNAu9KjxvyiK-10" value="PersonId" style="ellipse;whiteSpace=wrap;html=1;align=center;fontStyle=4;fillColor=#ffcd28;strokeColor=#d79b00;gradientColor=#ffa500;" vertex="1" parent="1">
          <mxGeometry x="40" y="160" width="100" height="40" as="geometry" />
        </mxCell>
        <mxCell id="gb-sB6ZDZNAu9KjxvyiK-11" value="Vorname" style="ellipse;whiteSpace=wrap;html=1;align=center;gradientColor=#ffa500;fillColor=#ffcd28;strokeColor=#d79b00;" vertex="1" parent="1">
          <mxGeometry x="90" y="110" width="100" height="40" as="geometry" />
        </mxCell>
        <mxCell id="gb-sB6ZDZNAu9KjxvyiK-13" value="" style="endArrow=none;html=1;rounded=0;strokeColor=#000000;" edge="1" parent="1" source="gb-sB6ZDZNAu9KjxvyiK-10" target="gb-sB6ZDZNAu9KjxvyiK-8">
          <mxGeometry relative="1" as="geometry">
            <mxPoint x="200" y="190" as="sourcePoint" />
            <mxPoint x="360" y="190" as="targetPoint" />
          </mxGeometry>
        </mxCell>
        <mxCell id="gb-sB6ZDZNAu9KjxvyiK-14" value="" style="endArrow=none;html=1;rounded=0;strokeColor=#000000;exitX=0.5;exitY=1;exitDx=0;exitDy=0;entryX=0;entryY=0.25;entryDx=0;entryDy=0;" edge="1" parent="1" source="gb-sB6ZDZNAu9KjxvyiK-11" target="gb-sB6ZDZNAu9KjxvyiK-8">
          <mxGeometry relative="1" as="geometry">
            <mxPoint x="248.67311721816122" y="176.38463841037776" as="sourcePoint" />
            <mxPoint x="325" y="220" as="targetPoint" />
            <Array as="points" />
          </mxGeometry>
        </mxCell>
        <mxCell id="gb-sB6ZDZNAu9KjxvyiK-15" value="Nachname" style="ellipse;whiteSpace=wrap;html=1;align=center;gradientColor=#ffa500;fillColor=#ffcd28;strokeColor=#d79b00;" vertex="1" parent="1">
          <mxGeometry x="170" y="70" width="100" height="40" as="geometry" />
        </mxCell>
        <mxCell id="gb-sB6ZDZNAu9KjxvyiK-16" value="AdresseID" style="ellipse;whiteSpace=wrap;html=1;align=center;gradientColor=#ffa500;fillColor=#ffcd28;strokeColor=#d79b00;" vertex="1" parent="1">
          <mxGeometry x="450" y="80" width="100" height="40" as="geometry" />
        </mxCell>
        <mxCell id="gb-sB6ZDZNAu9KjxvyiK-17" value="Geburtsdatum" style="ellipse;whiteSpace=wrap;html=1;align=center;gradientColor=#ffa500;fillColor=#ffcd28;strokeColor=#d79b00;" vertex="1" parent="1">
          <mxGeometry x="370" y="50" width="100" height="40" as="geometry" />
        </mxCell>
        <mxCell id="gb-sB6ZDZNAu9KjxvyiK-18" value="SVN" style="ellipse;whiteSpace=wrap;html=1;align=center;gradientColor=#ffa500;fillColor=#ffcd28;strokeColor=#d79b00;" vertex="1" parent="1">
          <mxGeometry x="270" y="40" width="100" height="40" as="geometry" />
        </mxCell>
        <mxCell id="gb-sB6ZDZNAu9KjxvyiK-19" value="Email" style="ellipse;whiteSpace=wrap;html=1;align=center;gradientColor=#ffa500;fillColor=#ffcd28;strokeColor=#d79b00;" vertex="1" parent="1">
          <mxGeometry x="480" y="130" width="100" height="40" as="geometry" />
        </mxCell>
        <mxCell id="gb-sB6ZDZNAu9KjxvyiK-20" value="Telefon" style="ellipse;whiteSpace=wrap;html=1;align=center;gradientColor=#ffa500;fillColor=#ffcd28;strokeColor=#d79b00;" vertex="1" parent="1">
          <mxGeometry x="480" y="180" width="100" height="40" as="geometry" />
        </mxCell>
        <mxCell id="gb-sB6ZDZNAu9KjxvyiK-22" value="" style="endArrow=none;html=1;rounded=0;strokeColor=#000000;exitX=0.5;exitY=1;exitDx=0;exitDy=0;entryX=0.5;entryY=0;entryDx=0;entryDy=0;" edge="1" parent="1" source="gb-sB6ZDZNAu9KjxvyiK-15" target="gb-sB6ZDZNAu9KjxvyiK-8">
          <mxGeometry relative="1" as="geometry">
            <mxPoint x="340" y="470" as="sourcePoint" />
            <mxPoint x="500" y="470" as="targetPoint" />
          </mxGeometry>
        </mxCell>
        <mxCell id="gb-sB6ZDZNAu9KjxvyiK-23" value="" style="endArrow=none;html=1;rounded=0;strokeColor=#000000;entryX=0.58;entryY=-0.05;entryDx=0;entryDy=0;entryPerimeter=0;" edge="1" parent="1" source="gb-sB6ZDZNAu9KjxvyiK-18" target="gb-sB6ZDZNAu9KjxvyiK-8">
          <mxGeometry relative="1" as="geometry">
            <mxPoint x="330" y="170" as="sourcePoint" />
            <mxPoint x="350" y="210" as="targetPoint" />
          </mxGeometry>
        </mxCell>
        <mxCell id="gb-sB6ZDZNAu9KjxvyiK-24" value="" style="endArrow=none;html=1;rounded=0;strokeColor=#000000;entryX=0;entryY=0.5;entryDx=0;entryDy=0;exitX=1;exitY=0.75;exitDx=0;exitDy=0;" edge="1" parent="1" source="gb-sB6ZDZNAu9KjxvyiK-8" target="gb-sB6ZDZNAu9KjxvyiK-19">
          <mxGeometry relative="1" as="geometry">
            <mxPoint x="399" y="240" as="sourcePoint" />
            <mxPoint x="429" y="290" as="targetPoint" />
          </mxGeometry>
        </mxCell>
        <mxCell id="gb-sB6ZDZNAu9KjxvyiK-25" value="" style="endArrow=none;html=1;rounded=0;strokeColor=#000000;entryX=1;entryY=0.5;entryDx=0;entryDy=0;" edge="1" parent="1" source="gb-sB6ZDZNAu9KjxvyiK-16" target="gb-sB6ZDZNAu9KjxvyiK-8">
          <mxGeometry relative="1" as="geometry">
            <mxPoint x="350" y="190" as="sourcePoint" />
            <mxPoint x="380" y="240" as="targetPoint" />
          </mxGeometry>
        </mxCell>
        <mxCell id="gb-sB6ZDZNAu9KjxvyiK-26" value="" style="endArrow=none;html=1;rounded=0;strokeColor=#000000;entryX=0.84;entryY=-0.025;entryDx=0;entryDy=0;entryPerimeter=0;" edge="1" parent="1" source="gb-sB6ZDZNAu9KjxvyiK-17" target="gb-sB6ZDZNAu9KjxvyiK-8">
          <mxGeometry relative="1" as="geometry">
            <mxPoint x="360" y="200" as="sourcePoint" />
            <mxPoint x="390" y="250" as="targetPoint" />
          </mxGeometry>
        </mxCell>
        <mxCell id="gb-sB6ZDZNAu9KjxvyiK-27" value="" style="endArrow=none;html=1;rounded=0;strokeColor=#000000;exitX=1;exitY=1;exitDx=0;exitDy=0;entryX=0;entryY=0.5;entryDx=0;entryDy=0;" edge="1" parent="1" source="gb-sB6ZDZNAu9KjxvyiK-8" target="gb-sB6ZDZNAu9KjxvyiK-20">
          <mxGeometry relative="1" as="geometry">
            <mxPoint x="370" y="210" as="sourcePoint" />
            <mxPoint x="400" y="260" as="targetPoint" />
          </mxGeometry>
        </mxCell>
        <mxCell id="gb-sB6ZDZNAu9KjxvyiK-33" value="EhamaligeMitarbeiter" style="whiteSpace=wrap;html=1;align=center;fillColor=#60a917;strokeColor=#2D7600;fontColor=#ffffff;" vertex="1" parent="1">
          <mxGeometry x="100" y="350" width="120" height="40" as="geometry" />
        </mxCell>
        <mxCell id="gb-sB6ZDZNAu9KjxvyiK-36" value="Personal" style="whiteSpace=wrap;html=1;align=center;fillColor=#60a917;strokeColor=#2D7600;fontColor=#ffffff;" vertex="1" parent="1">
          <mxGeometry x="280" y="350" width="100" height="40" as="geometry" />
        </mxCell>
        <mxCell id="gb-sB6ZDZNAu9KjxvyiK-38" value="Gast" style="whiteSpace=wrap;html=1;align=center;fillColor=#60a917;strokeColor=#2D7600;fontColor=#ffffff;" vertex="1" parent="1">
          <mxGeometry x="460" y="350" width="100" height="40" as="geometry" />
        </mxCell>
        <mxCell id="gb-sB6ZDZNAu9KjxvyiK-40" value="" style="edgeStyle=orthogonalEdgeStyle;rounded=0;orthogonalLoop=1;jettySize=auto;html=1;strokeColor=#000000;entryX=0.5;entryY=0;entryDx=0;entryDy=0;" edge="1" parent="1" target="gb-sB6ZDZNAu9KjxvyiK-33">
          <mxGeometry relative="1" as="geometry">
            <mxPoint x="320" y="250" as="sourcePoint" />
            <mxPoint x="330" y="360" as="targetPoint" />
          </mxGeometry>
        </mxCell>
        <mxCell id="gb-sB6ZDZNAu9KjxvyiK-43" value="PersonID" style="ellipse;whiteSpace=wrap;html=1;align=center;fontStyle=4;" vertex="1" parent="1">
          <mxGeometry x="20" y="280" width="100" height="40" as="geometry" />
        </mxCell>
        <mxCell id="gb-sB6ZDZNAu9KjxvyiK-44" value="PersonID" style="ellipse;whiteSpace=wrap;html=1;align=center;fontStyle=4;" vertex="1" parent="1">
          <mxGeometry x="200" y="280" width="100" height="40" as="geometry" />
        </mxCell>
        <mxCell id="gb-sB6ZDZNAu9KjxvyiK-45" value="PersonID" style="ellipse;whiteSpace=wrap;html=1;align=center;fontStyle=4;" vertex="1" parent="1">
          <mxGeometry x="360" y="280" width="100" height="40" as="geometry" />
        </mxCell>
        <mxCell id="gb-sB6ZDZNAu9KjxvyiK-46" value="&lt;i&gt;KontoID&lt;/i&gt;" style="ellipse;whiteSpace=wrap;html=1;align=center;" vertex="1" parent="1">
          <mxGeometry x="-50" y="320" width="100" height="40" as="geometry" />
        </mxCell>
        <mxCell id="gb-sB6ZDZNAu9KjxvyiK-47" value="&lt;i&gt;AbteilungsID&lt;/i&gt;" style="ellipse;whiteSpace=wrap;html=1;align=center;" vertex="1" parent="1">
          <mxGeometry x="-60" y="380" width="100" height="40" as="geometry" />
        </mxCell>
        <mxCell id="gb-sB6ZDZNAu9KjxvyiK-48" value="&lt;i&gt;GehaltsstufeID&lt;/i&gt;" style="ellipse;whiteSpace=wrap;html=1;align=center;" vertex="1" parent="1">
          <mxGeometry x="-30" y="430" width="100" height="40" as="geometry" />
        </mxCell>
        <mxCell id="gb-sB6ZDZNAu9KjxvyiK-49" value="Austrittsdatum" style="ellipse;whiteSpace=wrap;html=1;align=center;" vertex="1" parent="1">
          <mxGeometry x="40" y="470" width="100" height="40" as="geometry" />
        </mxCell>
        <mxCell id="gb-sB6ZDZNAu9KjxvyiK-50" value="&lt;i&gt;KontoID&lt;/i&gt;" style="ellipse;whiteSpace=wrap;html=1;align=center;" vertex="1" parent="1">
          <mxGeometry x="200" y="410" width="100" height="40" as="geometry" />
        </mxCell>
        <mxCell id="gb-sB6ZDZNAu9KjxvyiK-51" value="&lt;i&gt;AbteilungsID&lt;/i&gt;" style="ellipse;whiteSpace=wrap;html=1;align=center;" vertex="1" parent="1">
          <mxGeometry x="220" y="460" width="100" height="40" as="geometry" />
        </mxCell>
        <mxCell id="gb-sB6ZDZNAu9KjxvyiK-52" value="&lt;i&gt;GehaltsstufeID&lt;/i&gt;" style="ellipse;whiteSpace=wrap;html=1;align=center;" vertex="1" parent="1">
          <mxGeometry x="340" y="410" width="100" height="40" as="geometry" />
        </mxCell>
        <mxCell id="gb-sB6ZDZNAu9KjxvyiK-53" style="edgeStyle=orthogonalEdgeStyle;rounded=0;orthogonalLoop=1;jettySize=auto;html=1;exitX=0.5;exitY=1;exitDx=0;exitDy=0;strokeColor=#000000;" edge="1" parent="1" source="gb-sB6ZDZNAu9KjxvyiK-8" target="gb-sB6ZDZNAu9KjxvyiK-8">
          <mxGeometry relative="1" as="geometry" />
        </mxCell>
      </root>
    </mxGraphModel>
  </diagram>
</mxfile>
